# xmcd
#
# Track frame offsets:
# 150
# 13160
# 31312
# 43512
# 57853
# 69174
# 85190
# 101835
# 115333
# 129150
# 145716
#
# Disc length: 2180 seconds
#
#
# Revision: 0
# Processed by: cddbd v1.5PL3 Copyright (c) Steve Scherf et al.
# Submitted via: FreeRIP 2.53 
#
DISCID=8a08820b
DTITLE=LeDoux, Chris - Cowboy
DYEAR=1900
DGENRE=
TTITLE0=He Rides The Wild Horses
TTITLE1=Silence On The Line
TTITLE2=Ten Seconds In The Saddle
TTITLE3=Our First Year
TTITLE4=I'm Country
TTITLE5=Blue Eyes And Freckles
TTITLE6=Hippies In Calgary
TTITLE7=A Cowboy's Got To Ride
TTITLE8=The Yellow Stud
TTITLE9=Running Through The Rain
TTITLE10=Song Of Wyoming
EXTD=
EXTT0=
EXTT1=
EXTT2=
EXTT3=
EXTT4=
EXTT5=
EXTT6=
EXTT7=
EXTT8=
EXTT9=
EXTT10=
PLAYORDER=
